<?xml version="1.0" encoding="UTF-8"?><svg xmlns="http://www.w3.org/2000/svg" xmlns:xlink="http://www.w3.org/1999/xlink" fill-opacity="1" color-rendering="auto" color-interpolation="auto" text-rendering="auto" stroke="black" stroke-linecap="square" width="842" stroke-miterlimit="10" shape-rendering="auto" stroke-opacity="1" fill="black" stroke-dasharray="none" font-weight="normal" stroke-width="1" height="301" font-family="'Dialog'" font-style="normal" stroke-linejoin="miter" font-size="12px" stroke-dashoffset="0" image-rendering="auto">
  <!--Generated by ySVG 2.5-->
  <defs id="genericDefs"/>
  <g>
    <defs id="defs1">
      <clipPath clipPathUnits="userSpaceOnUse" id="clipPath1">
        <path d="M0 0 L842 0 L842 301 L0 301 L0 0 Z"/>
      </clipPath>
      <clipPath clipPathUnits="userSpaceOnUse" id="clipPath2">
        <path d="M73 -837 L915 -837 L915 -536 L73 -536 L73 -837 Z"/>
      </clipPath>
    </defs>
    <g fill="white" text-rendering="geometricPrecision" shape-rendering="geometricPrecision" transform="translate(-73,837)" stroke="white">
      <rect x="73" width="842" height="301" y="-837" clip-path="url(#clipPath2)" stroke="none"/>
    </g>
    <g fill="rgb(255,255,153)" text-rendering="geometricPrecision" shape-rendering="geometricPrecision" transform="matrix(1,0,0,1,-73,837)" stroke="rgb(255,255,153)">
      <rect x="229.9713" width="55" height="35" y="-586.9688" clip-path="url(#clipPath2)" stroke="none"/>
    </g>
    <g text-rendering="geometricPrecision" stroke-miterlimit="1.45" shape-rendering="geometricPrecision" font-family="sans-serif" transform="matrix(1,0,0,1,-73,837)" stroke-linecap="butt">
      <text x="237.1305" xml:space="preserve" y="-565.3145" clip-path="url(#clipPath2)" stroke="none">GATA3</text>
      <rect fill="none" x="229.9713" width="55" height="35" y="-586.9688" clip-path="url(#clipPath2)"/>
    </g>
    <g fill="rgb(255,204,153)" text-rendering="geometricPrecision" shape-rendering="geometricPrecision" transform="matrix(1,0,0,1,-73,837)" stroke="rgb(255,204,153)">
      <rect x="109.9713" width="55" height="35" y="-586.9688" clip-path="url(#clipPath2)" stroke="none"/>
    </g>
    <g text-rendering="geometricPrecision" stroke-miterlimit="1.45" shape-rendering="geometricPrecision" font-family="sans-serif" transform="matrix(1,0,0,1,-73,837)" stroke-linecap="butt">
      <text x="121.7887" xml:space="preserve" y="-565.3145" clip-path="url(#clipPath2)" stroke="none">T-bet</text>
      <rect fill="none" x="109.9713" width="55" height="35" y="-586.9688" clip-path="url(#clipPath2)"/>
    </g>
    <g fill="rgb(255,204,153)" text-rendering="geometricPrecision" shape-rendering="geometricPrecision" transform="matrix(1,0,0,1,-73,837)" stroke="rgb(255,204,153)">
      <ellipse rx="27.5" ry="17.5" clip-path="url(#clipPath2)" cx="137.4713" cy="-715.7188" stroke="none"/>
    </g>
    <g text-rendering="geometricPrecision" stroke-miterlimit="1.45" shape-rendering="geometricPrecision" font-family="sans-serif" transform="matrix(1,0,0,1,-73,837)" stroke-linecap="butt">
      <text x="124.2116" xml:space="preserve" y="-718.5488" clip-path="url(#clipPath2)" stroke="none">IFNγ</text>
      <text x="118.4108" xml:space="preserve" y="-704.5801" clip-path="url(#clipPath2)" stroke="none">STAT1</text>
      <ellipse rx="27.5" fill="none" ry="17.5" clip-path="url(#clipPath2)" cx="137.4713" cy="-715.7188"/>
    </g>
    <g fill="rgb(204,255,204)" text-rendering="geometricPrecision" shape-rendering="geometricPrecision" transform="matrix(1,0,0,1,-73,837)" stroke="rgb(204,255,204)">
      <ellipse rx="27.5" ry="17.5" clip-path="url(#clipPath2)" cx="197.4713" cy="-650.7188" stroke="none"/>
    </g>
    <g text-rendering="geometricPrecision" stroke-miterlimit="1.45" shape-rendering="geometricPrecision" font-family="sans-serif" transform="matrix(1,0,0,1,-73,837)" stroke-linecap="butt">
      <text x="186.3766" xml:space="preserve" y="-653.5488" clip-path="url(#clipPath2)" stroke="none">IL-2</text>
      <text x="178.4108" xml:space="preserve" y="-639.5801" clip-path="url(#clipPath2)" stroke="none">STAT5</text>
      <ellipse rx="27.5" fill="none" ry="17.5" clip-path="url(#clipPath2)" cx="197.4713" cy="-650.7188"/>
    </g>
    <g fill="rgb(255,255,153)" text-rendering="geometricPrecision" shape-rendering="geometricPrecision" transform="matrix(1,0,0,1,-73,837)" stroke="rgb(255,255,153)">
      <ellipse rx="27.5" ry="17.5" clip-path="url(#clipPath2)" cx="257.4713" cy="-715.7188" stroke="none"/>
    </g>
    <g text-rendering="geometricPrecision" stroke-miterlimit="1.45" shape-rendering="geometricPrecision" font-family="sans-serif" transform="matrix(1,0,0,1,-73,837)" stroke-linecap="butt">
      <text x="246.3766" xml:space="preserve" y="-718.5488" clip-path="url(#clipPath2)" stroke="none">IL-4</text>
      <text x="238.4108" xml:space="preserve" y="-704.5801" clip-path="url(#clipPath2)" stroke="none">STAT6</text>
      <ellipse rx="27.5" fill="none" ry="17.5" clip-path="url(#clipPath2)" cx="257.4713" cy="-715.7188"/>
    </g>
    <g fill="rgb(255,204,153)" text-rendering="geometricPrecision" shape-rendering="geometricPrecision" transform="matrix(1,0,0,1,-73,837)" stroke="rgb(255,204,153)">
      <path d="M109.9713 -806.2188 L137.4713 -821.2188 L164.9713 -806.2188 L137.4713 -791.2188 Z" fill-rule="evenodd" clip-path="url(#clipPath2)" stroke="none"/>
    </g>
    <g text-rendering="geometricPrecision" stroke-miterlimit="1.45" shape-rendering="geometricPrecision" font-family="sans-serif" transform="matrix(1,0,0,1,-73,837)" stroke-linecap="butt">
      <text x="120.5202" xml:space="preserve" y="-802.0645" clip-path="url(#clipPath2)" stroke="none">IFNγe</text>
      <path fill="none" d="M109.9713 -806.2188 L137.4713 -821.2188 L164.9713 -806.2188 L137.4713 -791.2188 Z" clip-path="url(#clipPath2)" fill-rule="evenodd"/>
    </g>
    <g fill="rgb(204,255,204)" text-rendering="geometricPrecision" shape-rendering="geometricPrecision" transform="matrix(1,0,0,1,-73,837)" stroke="rgb(204,255,204)">
      <path d="M169.9713 -806.2188 L197.4713 -821.2188 L224.9713 -806.2188 L197.4713 -791.2188 Z" fill-rule="evenodd" clip-path="url(#clipPath2)" stroke="none"/>
    </g>
    <g text-rendering="geometricPrecision" stroke-miterlimit="1.45" shape-rendering="geometricPrecision" font-family="sans-serif" transform="matrix(1,0,0,1,-73,837)" stroke-linecap="butt">
      <text x="182.6852" xml:space="preserve" y="-802.0645" clip-path="url(#clipPath2)" stroke="none">IL-2e</text>
      <path fill="none" d="M169.9713 -806.2188 L197.4713 -821.2188 L224.9713 -806.2188 L197.4713 -791.2188 Z" clip-path="url(#clipPath2)" fill-rule="evenodd"/>
    </g>
    <g fill="rgb(255,255,153)" text-rendering="geometricPrecision" shape-rendering="geometricPrecision" transform="matrix(1,0,0,1,-73,837)" stroke="rgb(255,255,153)">
      <path d="M229.9713 -806.2188 L257.4713 -821.2188 L284.9713 -806.2188 L257.4713 -791.2188 Z" fill-rule="evenodd" clip-path="url(#clipPath2)" stroke="none"/>
    </g>
    <g text-rendering="geometricPrecision" stroke-miterlimit="1.45" shape-rendering="geometricPrecision" font-family="sans-serif" transform="matrix(1,0,0,1,-73,837)" stroke-linecap="butt">
      <text x="242.6852" xml:space="preserve" y="-802.0645" clip-path="url(#clipPath2)" stroke="none">IL-4e</text>
      <path fill="none" d="M229.9713 -806.2188 L257.4713 -821.2188 L284.9713 -806.2188 L257.4713 -791.2188 Z" clip-path="url(#clipPath2)" fill-rule="evenodd"/>
    </g>
    <g fill="rgb(255,255,153)" text-rendering="geometricPrecision" shape-rendering="geometricPrecision" transform="matrix(1,0,0,1,-73,837)" stroke="rgb(255,255,153)">
      <rect x="526.8059" width="55" height="35" y="-586.9688" clip-path="url(#clipPath2)" stroke="none"/>
    </g>
    <g text-rendering="geometricPrecision" stroke-miterlimit="1.45" shape-rendering="geometricPrecision" font-family="sans-serif" transform="matrix(1,0,0,1,-73,837)" stroke-linecap="butt">
      <text x="533.9651" xml:space="preserve" y="-565.3145" clip-path="url(#clipPath2)" stroke="none">GATA3</text>
      <rect fill="none" x="526.8059" width="55" height="35" y="-586.9688" clip-path="url(#clipPath2)"/>
    </g>
    <g fill="rgb(153,204,255)" text-rendering="geometricPrecision" shape-rendering="geometricPrecision" transform="matrix(1,0,0,1,-73,837)" stroke="rgb(153,204,255)">
      <rect x="406.8059" width="55" height="35" y="-586.9688" clip-path="url(#clipPath2)" stroke="none"/>
    </g>
    <g text-rendering="geometricPrecision" stroke-miterlimit="1.45" shape-rendering="geometricPrecision" font-family="sans-serif" transform="matrix(1,0,0,1,-73,837)" stroke-linecap="butt">
      <text x="416.0071" xml:space="preserve" y="-565.3145" clip-path="url(#clipPath2)" stroke="none">Foxp3</text>
      <rect fill="none" x="406.8059" width="55" height="35" y="-586.9688" clip-path="url(#clipPath2)"/>
    </g>
    <g fill="rgb(204,153,255)" text-rendering="geometricPrecision" shape-rendering="geometricPrecision" transform="matrix(1,0,0,1,-73,837)" stroke="rgb(204,153,255)">
      <ellipse rx="27.5" ry="17.5" clip-path="url(#clipPath2)" cx="434.3059" cy="-715.7188" stroke="none"/>
    </g>
    <g text-rendering="geometricPrecision" stroke-miterlimit="1.45" shape-rendering="geometricPrecision" font-family="sans-serif" transform="matrix(1,0,0,1,-73,837)" stroke-linecap="butt">
      <text x="418.7112" xml:space="preserve" y="-718.5488" clip-path="url(#clipPath2)" stroke="none">TGFβ</text>
      <text x="412.7786" xml:space="preserve" y="-704.5801" clip-path="url(#clipPath2)" stroke="none">SMAD3</text>
      <ellipse rx="27.5" fill="none" ry="17.5" clip-path="url(#clipPath2)" cx="434.3059" cy="-715.7188"/>
    </g>
    <g fill="rgb(204,255,204)" text-rendering="geometricPrecision" shape-rendering="geometricPrecision" transform="matrix(1,0,0,1,-73,837)" stroke="rgb(204,255,204)">
      <ellipse rx="27.5" ry="17.5" clip-path="url(#clipPath2)" cx="494.3059" cy="-650.7188" stroke="none"/>
    </g>
    <g text-rendering="geometricPrecision" stroke-miterlimit="1.45" shape-rendering="geometricPrecision" font-family="sans-serif" transform="matrix(1,0,0,1,-73,837)" stroke-linecap="butt">
      <text x="483.2112" xml:space="preserve" y="-653.5488" clip-path="url(#clipPath2)" stroke="none">IL-2</text>
      <text x="475.2454" xml:space="preserve" y="-639.5801" clip-path="url(#clipPath2)" stroke="none">STAT5</text>
      <ellipse rx="27.5" fill="none" ry="17.5" clip-path="url(#clipPath2)" cx="494.3059" cy="-650.7188"/>
    </g>
    <g fill="rgb(255,255,153)" text-rendering="geometricPrecision" shape-rendering="geometricPrecision" transform="matrix(1,0,0,1,-73,837)" stroke="rgb(255,255,153)">
      <ellipse rx="27.5" ry="17.5" clip-path="url(#clipPath2)" cx="554.3059" cy="-715.7188" stroke="none"/>
    </g>
    <g text-rendering="geometricPrecision" stroke-miterlimit="1.45" shape-rendering="geometricPrecision" font-family="sans-serif" transform="matrix(1,0,0,1,-73,837)" stroke-linecap="butt">
      <text x="543.2112" xml:space="preserve" y="-718.5488" clip-path="url(#clipPath2)" stroke="none">IL-4</text>
      <text x="535.2454" xml:space="preserve" y="-704.5801" clip-path="url(#clipPath2)" stroke="none">STAT6</text>
      <ellipse rx="27.5" fill="none" ry="17.5" clip-path="url(#clipPath2)" cx="554.3059" cy="-715.7188"/>
    </g>
    <g fill="rgb(204,153,255)" text-rendering="geometricPrecision" shape-rendering="geometricPrecision" transform="matrix(1,0,0,1,-73,837)" stroke="rgb(204,153,255)">
      <path d="M406.8059 -806.2188 L434.3059 -821.2188 L461.8059 -806.2188 L434.3059 -791.2188 Z" fill-rule="evenodd" clip-path="url(#clipPath2)" stroke="none"/>
    </g>
    <g text-rendering="geometricPrecision" stroke-miterlimit="1.45" shape-rendering="geometricPrecision" font-family="sans-serif" transform="matrix(1,0,0,1,-73,837)" stroke-linecap="butt">
      <text x="415.0198" xml:space="preserve" y="-802.0645" clip-path="url(#clipPath2)" stroke="none">TGFβe</text>
      <path fill="none" d="M406.8059 -806.2188 L434.3059 -821.2188 L461.8059 -806.2188 L434.3059 -791.2188 Z" clip-path="url(#clipPath2)" fill-rule="evenodd"/>
    </g>
    <g fill="rgb(204,255,204)" text-rendering="geometricPrecision" shape-rendering="geometricPrecision" transform="matrix(1,0,0,1,-73,837)" stroke="rgb(204,255,204)">
      <path d="M466.8059 -806.2188 L494.3059 -821.2188 L521.8059 -806.2188 L494.3059 -791.2188 Z" fill-rule="evenodd" clip-path="url(#clipPath2)" stroke="none"/>
    </g>
    <g text-rendering="geometricPrecision" stroke-miterlimit="1.45" shape-rendering="geometricPrecision" font-family="sans-serif" transform="matrix(1,0,0,1,-73,837)" stroke-linecap="butt">
      <text x="479.5198" xml:space="preserve" y="-802.0645" clip-path="url(#clipPath2)" stroke="none">IL-2e</text>
      <path fill="none" d="M466.8059 -806.2188 L494.3059 -821.2188 L521.8059 -806.2188 L494.3059 -791.2188 Z" clip-path="url(#clipPath2)" fill-rule="evenodd"/>
    </g>
    <g fill="rgb(255,255,153)" text-rendering="geometricPrecision" shape-rendering="geometricPrecision" transform="matrix(1,0,0,1,-73,837)" stroke="rgb(255,255,153)">
      <path d="M526.8059 -806.2188 L554.3059 -821.2188 L581.8059 -806.2188 L554.3059 -791.2188 Z" fill-rule="evenodd" clip-path="url(#clipPath2)" stroke="none"/>
    </g>
    <g text-rendering="geometricPrecision" stroke-miterlimit="1.45" shape-rendering="geometricPrecision" font-family="sans-serif" transform="matrix(1,0,0,1,-73,837)" stroke-linecap="butt">
      <text x="539.5198" xml:space="preserve" y="-802.0645" clip-path="url(#clipPath2)" stroke="none">IL-4e</text>
      <path fill="none" d="M526.8059 -806.2188 L554.3059 -821.2188 L581.8059 -806.2188 L554.3059 -791.2188 Z" clip-path="url(#clipPath2)" fill-rule="evenodd"/>
    </g>
    <g fill="rgb(255,153,204)" text-rendering="geometricPrecision" shape-rendering="geometricPrecision" transform="matrix(1,0,0,1,-73,837)" stroke="rgb(255,153,204)">
      <rect x="823.6405" width="55" height="35" y="-586.9688" clip-path="url(#clipPath2)" stroke="none"/>
    </g>
    <g text-rendering="geometricPrecision" stroke-miterlimit="1.45" shape-rendering="geometricPrecision" font-family="sans-serif" transform="matrix(1,0,0,1,-73,837)" stroke-linecap="butt">
      <text x="832.1766" xml:space="preserve" y="-565.3145" clip-path="url(#clipPath2)" stroke="none">RORγt</text>
      <rect fill="none" x="823.6405" width="55" height="35" y="-586.9688" clip-path="url(#clipPath2)"/>
    </g>
    <g fill="rgb(255,153,204)" text-rendering="geometricPrecision" shape-rendering="geometricPrecision" transform="matrix(1,0,0,1,-73,837)" stroke="rgb(255,153,204)">
      <ellipse rx="27.5" ry="17.5" clip-path="url(#clipPath2)" cx="851.1405" cy="-715.7188" stroke="none"/>
    </g>
    <g text-rendering="geometricPrecision" stroke-miterlimit="1.45" shape-rendering="geometricPrecision" font-family="sans-serif" transform="matrix(1,0,0,1,-73,837)" stroke-linecap="butt">
      <text x="836.2283" xml:space="preserve" y="-718.5488" clip-path="url(#clipPath2)" stroke="none">IL-21</text>
      <text x="832.0799" xml:space="preserve" y="-704.5801" clip-path="url(#clipPath2)" stroke="none">STAT3</text>
      <ellipse rx="27.5" fill="none" ry="17.5" clip-path="url(#clipPath2)" cx="851.1405" cy="-715.7188"/>
    </g>
    <g fill="rgb(153,204,255)" text-rendering="geometricPrecision" shape-rendering="geometricPrecision" transform="matrix(1,0,0,1,-73,837)" stroke="rgb(153,204,255)">
      <rect x="703.6405" width="55" height="35" y="-586.9688" clip-path="url(#clipPath2)" stroke="none"/>
    </g>
    <g text-rendering="geometricPrecision" stroke-miterlimit="1.45" shape-rendering="geometricPrecision" font-family="sans-serif" transform="matrix(1,0,0,1,-73,837)" stroke-linecap="butt">
      <text x="712.8416" xml:space="preserve" y="-565.3145" clip-path="url(#clipPath2)" stroke="none">Foxp3</text>
      <rect fill="none" x="703.6405" width="55" height="35" y="-586.9688" clip-path="url(#clipPath2)"/>
    </g>
    <g fill="rgb(204,153,255)" text-rendering="geometricPrecision" shape-rendering="geometricPrecision" transform="matrix(1,0,0,1,-73,837)" stroke="rgb(204,153,255)">
      <ellipse rx="27.5" ry="17.5" clip-path="url(#clipPath2)" cx="731.1405" cy="-715.7188" stroke="none"/>
    </g>
    <g text-rendering="geometricPrecision" stroke-miterlimit="1.45" shape-rendering="geometricPrecision" font-family="sans-serif" transform="matrix(1,0,0,1,-73,837)" stroke-linecap="butt">
      <text x="715.5457" xml:space="preserve" y="-718.5488" clip-path="url(#clipPath2)" stroke="none">TGFβ</text>
      <text x="709.6131" xml:space="preserve" y="-704.5801" clip-path="url(#clipPath2)" stroke="none">SMAD3</text>
      <ellipse rx="27.5" fill="none" ry="17.5" clip-path="url(#clipPath2)" cx="731.1405" cy="-715.7188"/>
    </g>
    <g fill="rgb(204,255,204)" text-rendering="geometricPrecision" shape-rendering="geometricPrecision" transform="matrix(1,0,0,1,-73,837)" stroke="rgb(204,255,204)">
      <ellipse rx="27.5" ry="17.5" clip-path="url(#clipPath2)" cx="791.1405" cy="-650.7188" stroke="none"/>
    </g>
    <g text-rendering="geometricPrecision" stroke-miterlimit="1.45" shape-rendering="geometricPrecision" font-family="sans-serif" transform="matrix(1,0,0,1,-73,837)" stroke-linecap="butt">
      <text x="780.0457" xml:space="preserve" y="-653.5488" clip-path="url(#clipPath2)" stroke="none">IL-2</text>
      <text x="772.0799" xml:space="preserve" y="-639.5801" clip-path="url(#clipPath2)" stroke="none">STAT5</text>
      <ellipse rx="27.5" fill="none" ry="17.5" clip-path="url(#clipPath2)" cx="791.1405" cy="-650.7188"/>
    </g>
    <g fill="rgb(204,153,255)" text-rendering="geometricPrecision" shape-rendering="geometricPrecision" transform="matrix(1,0,0,1,-73,837)" stroke="rgb(204,153,255)">
      <path d="M703.6404 -806.2188 L731.1404 -821.2188 L758.6404 -806.2188 L731.1404 -791.2188 Z" fill-rule="evenodd" clip-path="url(#clipPath2)" stroke="none"/>
    </g>
    <g text-rendering="geometricPrecision" stroke-miterlimit="1.45" shape-rendering="geometricPrecision" font-family="sans-serif" transform="matrix(1,0,0,1,-73,837)" stroke-linecap="butt">
      <text x="711.8543" xml:space="preserve" y="-802.0645" clip-path="url(#clipPath2)" stroke="none">TGFβe</text>
      <path fill="none" d="M703.6404 -806.2188 L731.1404 -821.2188 L758.6404 -806.2188 L731.1404 -791.2188 Z" clip-path="url(#clipPath2)" fill-rule="evenodd"/>
    </g>
    <g fill="rgb(255,153,204)" text-rendering="geometricPrecision" shape-rendering="geometricPrecision" transform="matrix(1,0,0,1,-73,837)" stroke="rgb(255,153,204)">
      <path d="M823.6404 -806.2188 L851.1404 -821.2188 L878.6404 -806.2188 L851.1404 -791.2188 Z" fill-rule="evenodd" clip-path="url(#clipPath2)" stroke="none"/>
    </g>
    <g text-rendering="geometricPrecision" stroke-miterlimit="1.45" shape-rendering="geometricPrecision" font-family="sans-serif" transform="matrix(1,0,0,1,-73,837)" stroke-linecap="butt">
      <text x="832.5369" xml:space="preserve" y="-802.0645" clip-path="url(#clipPath2)" stroke="none">IL-21e</text>
      <path fill="none" d="M823.6404 -806.2188 L851.1404 -821.2188 L878.6404 -806.2188 L851.1404 -791.2188 Z" clip-path="url(#clipPath2)" fill-rule="evenodd"/>
    </g>
    <g fill="rgb(204,255,204)" text-rendering="geometricPrecision" shape-rendering="geometricPrecision" transform="matrix(1,0,0,1,-73,837)" stroke="rgb(204,255,204)">
      <path d="M763.6404 -806.2188 L791.1404 -821.2188 L818.6404 -806.2188 L791.1404 -791.2188 Z" fill-rule="evenodd" clip-path="url(#clipPath2)" stroke="none"/>
    </g>
    <g text-rendering="geometricPrecision" stroke-miterlimit="1.45" shape-rendering="geometricPrecision" font-family="sans-serif" transform="matrix(1,0,0,1,-73,837)" stroke-linecap="butt">
      <text x="776.3543" xml:space="preserve" y="-802.0645" clip-path="url(#clipPath2)" stroke="none">IL-2e</text>
      <path fill="none" d="M763.6404 -806.2188 L791.1404 -821.2188 L818.6404 -806.2188 L791.1404 -791.2188 Z" clip-path="url(#clipPath2)" fill-rule="evenodd"/>
      <path fill="none" d="M271.2213 -586.998 L271.2213 -594.4834 L271.9713 -600.8474 L274.2213 -604.9688 L274.2213 -604.9688 L278.9713 -607.2188 L287.2213 -607.9688 L289.9713 -607.9688 L298.2213 -607.2188 L302.9713 -604.9688 L302.9713 -604.9688 L305.2213 -600.5 L305.9713 -593.0938 L305.9713 -593.0938 L305.2213 -585.6875 L302.9713 -581.2188 L302.9713 -581.2188 L299.8463 -578.9688 L296.4713 -578.2188 L292.9713 -578.2188" clip-path="url(#clipPath2)"/>
      <path d="M284.9713 -578.2188 L296.9713 -573.2188 L293.9713 -578.2188 L296.9713 -583.2188 Z" clip-path="url(#clipPath2)" stroke="none"/>
      <path fill="none" d="M123.7213 -586.998 L123.7213 -594.4834 L122.9713 -600.8474 L120.7213 -604.9688 L120.7213 -604.9688 L115.9713 -607.2188 L107.7213 -607.9688 L104.9713 -607.9688 L96.7213 -607.2188 L91.9713 -604.9688 L91.9713 -604.9688 L89.7213 -600.5 L88.9713 -593.0938 L88.9713 -593.0938 L89.7213 -585.6875 L91.9713 -581.2188 L91.9713 -581.2188 L95.0927 -578.9688 L98.4567 -578.2188 L101.942 -578.2188" clip-path="url(#clipPath2)"/>
      <path d="M109.942 -578.2188 L97.942 -583.2188 L100.942 -578.2188 L97.942 -573.2188 Z" clip-path="url(#clipPath2)" stroke="none"/>
    </g>
    <g stroke-linecap="butt" transform="matrix(1,0,0,1,-73,837)" fill="maroon" text-rendering="geometricPrecision" shape-rendering="geometricPrecision" stroke="maroon" stroke-width="2" stroke-miterlimit="1.45">
      <path fill="none" d="M225.4713 -569.4688 L169.4713 -569.4688" clip-path="url(#clipPath2)"/>
      <path d="M234.4713 -569.4688 C234.4713 -566.9835 232.4566 -564.9688 229.9713 -564.9688 C227.4861 -564.9688 225.4713 -566.9835 225.4713 -569.4688 C225.4713 -571.954 227.4861 -573.9688 229.9713 -573.9688 C232.4566 -573.9688 234.4713 -571.954 234.4713 -569.4688 Z" clip-path="url(#clipPath2)" stroke="none"/>
      <path d="M160.4713 -569.4688 C160.4713 -571.954 162.4861 -573.9688 164.9713 -573.9688 C167.4566 -573.9688 169.4713 -571.954 169.4713 -569.4688 C169.4713 -566.9835 167.4566 -564.9688 164.9713 -564.9688 C162.4861 -564.9688 160.4713 -566.9835 160.4713 -569.4688 Z" clip-path="url(#clipPath2)" stroke="none"/>
      <path fill="none" d="M225.8998 -584.3286 L224.0378 -585.205 L213.0513 -590.1732 L194.8776 -598.3231 L186.1763 -603.0647 L178.3215 -609.106 L167.508 -618.8419 L161.0815 -626.2103 L156.6651 -634.9332 L152.7596 -645.6955 L147.4257 -664.9091 L141.7387 -693.9371" clip-path="url(#clipPath2)"/>
      <path d="M234.0429 -580.496 C232.9846 -578.2473 230.3037 -577.2823 228.055 -578.3407 C225.8064 -579.3991 224.8414 -582.08 225.8998 -584.3286 C226.9581 -586.5773 229.639 -587.5422 231.8877 -586.4839 C234.1363 -585.4255 235.1013 -582.7446 234.0429 -580.496 Z" clip-path="url(#clipPath2)" stroke="none"/>
      <path d="M140.0083 -702.7693 C142.4473 -703.2471 144.8118 -701.6573 145.2896 -699.2184 C145.7674 -696.7795 144.1776 -694.415 141.7387 -693.9371 C139.2998 -693.4594 136.9353 -695.0491 136.4575 -697.488 C135.9796 -699.9269 137.5694 -702.2914 140.0083 -702.7693 Z" clip-path="url(#clipPath2)" stroke="none"/>
      <path fill="none" d="M123.7213 -733.2188 L123.7213 -740.7188 L122.9713 -747.0938 L120.7213 -751.2188 L120.7213 -751.2188 L115.9713 -753.4688 L107.7213 -754.2188 L104.9713 -754.2188 L96.7213 -753.4688 L91.9713 -751.2188 L91.9713 -751.2188 L89.7213 -746.75 L88.9713 -739.3438 L88.9713 -739.3438 L89.7213 -731.9375 L91.9713 -727.4688 L91.9713 -727.4688 L95.0963 -725.2188 L98.4713 -724.4688 L101.9713 -724.4688" stroke-width="1" clip-path="url(#clipPath2)" stroke="black"/>
      <path fill="black" d="M109.9713 -724.4688 L97.9713 -729.4688 L100.9713 -724.4688 L97.9713 -719.4688 Z" stroke-width="1" clip-path="url(#clipPath2)" stroke="none"/>
      <path fill="none" d="M137.4713 -594.9688 L137.4713 -690.2188" stroke-width="1" clip-path="url(#clipPath2)" stroke="black"/>
      <path fill="black" d="M137.4713 -586.9688 L142.4713 -598.9688 L137.4713 -595.9688 L132.4713 -598.9688 Z" stroke-width="1" clip-path="url(#clipPath2)" stroke="none"/>
      <path fill="black" d="M137.4713 -698.2188 L132.4713 -686.2188 L137.4713 -689.2188 L142.4713 -686.2188 Z" stroke-width="1" clip-path="url(#clipPath2)" stroke="none"/>
      <path fill="none" d="M211.2213 -668.2188 L211.2213 -675.7188 L211.9713 -682.0938 L214.2213 -686.2188 L214.2213 -686.2188 L218.9713 -688.4688 L227.2213 -689.2188 L229.9713 -689.2188 L238.2213 -688.4688 L242.9713 -686.2188 L242.9713 -686.2188 L245.2213 -681.75 L245.9713 -674.3438 L245.9713 -674.3438 L245.2213 -666.9375 L242.9713 -662.4688 L242.9713 -662.4688 L239.8463 -660.2188 L236.4713 -659.4688 L232.9713 -659.4688" stroke-width="1" clip-path="url(#clipPath2)" stroke="black"/>
      <path fill="black" d="M224.9713 -659.4688 L236.9713 -654.4688 L233.9713 -659.4688 L236.9713 -664.4688 Z" stroke-width="1" clip-path="url(#clipPath2)" stroke="none"/>
      <path fill="none" d="M151.3999 -700.6295 L180.8297 -668.7473" stroke-width="1" clip-path="url(#clipPath2)"/>
      <path d="M186.2559 -662.8688 C184.6326 -661.3704 182.102 -661.4716 180.6036 -663.0949 C179.1051 -664.7182 179.2064 -667.2488 180.8297 -668.7473 C182.4529 -670.2457 184.9836 -670.1445 186.482 -668.5212 C187.9804 -666.8979 187.8792 -664.3672 186.2559 -662.8688 Z" stroke-width="1" clip-path="url(#clipPath2)" stroke="none"/>
      <path fill="none" d="M209.1673 -634.8804 L239.7959 -593.4042" stroke-width="1" clip-path="url(#clipPath2)" stroke="black"/>
      <path fill="black" d="M244.5482 -586.9688 L241.4419 -599.5922 L239.2019 -594.2087 L233.3976 -593.6517 Z" stroke-width="1" clip-path="url(#clipPath2)" stroke="none"/>
      <path fill="none" d="M211.3999 -665.808 L237.4382 -694.0162" clip-path="url(#clipPath2)" stroke="black"/>
      <path fill="black" d="M243.5428 -700.6295 L230.2527 -694.525 L236.6752 -693.1896 L238.5192 -686.8943 Z" clip-path="url(#clipPath2)" stroke="none"/>
      <path fill="none" d="M271.2213 -733.2188 L271.2213 -740.7188 L271.9713 -747.0938 L274.2213 -751.2188 L274.2213 -751.2188 L278.9713 -753.4688 L287.2213 -754.2188 L289.9713 -754.2188 L298.2213 -753.4688 L302.9713 -751.2188 L302.9713 -751.2188 L305.2213 -746.75 L305.9713 -739.3438 L305.9713 -739.3438 L305.2213 -731.9375 L302.9713 -727.4688 L302.9713 -727.4688 L299.8463 -725.2188 L296.4713 -724.4688 L292.9713 -724.4688" stroke-width="1" clip-path="url(#clipPath2)" stroke="black"/>
      <path fill="black" d="M284.9713 -724.4688 L296.9713 -719.4688 L293.9713 -724.4688 L296.9713 -729.4688 Z" stroke-width="1" clip-path="url(#clipPath2)" stroke="none"/>
    </g>
    <g stroke-linecap="butt" transform="matrix(1,0,0,1,-73,837)" fill-opacity="0" fill="rgb(128,0,0)" text-rendering="geometricPrecision" shape-rendering="geometricPrecision" stroke="rgb(128,0,0)" stroke-opacity="0" stroke-miterlimit="1.45">
      <path fill="none" d="M164.9713 -715.7188 L225.9713 -715.7188" clip-path="url(#clipPath2)"/>
      <path d="M233.9713 -715.7188 C233.9713 -713.5096 232.1805 -711.7188 229.9713 -711.7188 C227.7622 -711.7188 225.9713 -713.5096 225.9713 -715.7188 C225.9713 -717.9279 227.7622 -719.7188 229.9713 -719.7188 C232.1805 -719.7188 233.9713 -717.9279 233.9713 -715.7188 Z" clip-path="url(#clipPath2)" stroke="none"/>
    </g>
    <g text-rendering="geometricPrecision" stroke-miterlimit="1.45" shape-rendering="geometricPrecision" transform="matrix(1,0,0,1,-73,837)" stroke-linecap="butt">
      <path fill="none" d="M257.4713 -594.9688 L257.4713 -690.2188" clip-path="url(#clipPath2)"/>
      <path d="M257.4713 -586.9688 L262.4713 -598.9688 L257.4713 -595.9688 L252.4713 -598.9688 Z" clip-path="url(#clipPath2)" stroke="none"/>
      <path d="M257.4713 -698.2188 L252.4713 -686.2188 L257.4713 -689.2188 L262.4713 -686.2188 Z" clip-path="url(#clipPath2)" stroke="none"/>
      <path fill="none" d="M169.0585 -584.02 L200.4019 -598.4589 L209.053 -603.2903 L216.8411 -609.4164 L227.3169 -619.0618 L233.7062 -626.485 L238.1609 -635.2075 L242.1943 -646.0468 L247.6006 -665.2332 L253.2125 -693.9363" stroke-width="2" clip-path="url(#clipPath2)" stroke="maroon"/>
      <path fill="maroon" d="M160.8842 -580.2543 C159.8443 -582.5116 160.8312 -585.1844 163.0885 -586.2243 C165.3458 -587.2642 168.0187 -586.2772 169.0585 -584.02 C170.0984 -581.7627 169.1114 -579.0898 166.8541 -578.05 C164.5969 -577.0101 161.924 -577.9971 160.8842 -580.2543 Z" stroke-width="2" clip-path="url(#clipPath2)" stroke="none"/>
      <path fill="maroon" d="M254.9395 -702.769 C257.3785 -702.2922 258.9692 -699.9283 258.4923 -697.4892 C258.0155 -695.0501 255.6516 -693.4594 253.2125 -693.9363 C250.7734 -694.4131 249.1827 -696.777 249.6596 -699.2161 C250.1365 -701.6552 252.5004 -703.2459 254.9395 -702.769 Z" stroke-width="2" clip-path="url(#clipPath2)" stroke="none"/>
      <path fill="none" d="M225.4713 -715.7188 L169.4713 -715.7188" stroke-width="2" clip-path="url(#clipPath2)" stroke="maroon"/>
      <path fill="maroon" d="M234.4713 -715.7188 C234.4713 -713.2335 232.4566 -711.2188 229.9713 -711.2188 C227.4861 -711.2188 225.4713 -713.2335 225.4713 -715.7188 C225.4713 -718.204 227.4861 -720.2188 229.9713 -720.2188 C232.4566 -720.2188 234.4713 -718.204 234.4713 -715.7188 Z" stroke-width="2" clip-path="url(#clipPath2)" stroke="none"/>
      <path fill="maroon" d="M160.4713 -715.7188 C160.4713 -718.204 162.4861 -720.2188 164.9713 -720.2188 C167.4566 -720.2188 169.4713 -718.204 169.4713 -715.7188 C169.4713 -713.2335 167.4566 -711.2188 164.9713 -711.2188 C162.4861 -711.2188 160.4713 -713.2335 160.4713 -715.7188 Z" stroke-width="2" clip-path="url(#clipPath2)" stroke="none"/>
      <path fill="none" d="M137.4713 -791.2385 L137.4713 -741.2188" clip-path="url(#clipPath2)"/>
      <path d="M137.4713 -733.2188 L142.4713 -745.2188 L137.4713 -742.2188 L132.4713 -745.2188 Z" clip-path="url(#clipPath2)" stroke="none"/>
      <path fill="none" d="M197.4713 -791.223 L197.4713 -676.2188" clip-path="url(#clipPath2)"/>
      <path d="M197.4713 -668.2188 L202.4713 -680.2188 L197.4713 -677.2188 L192.4713 -680.2188 Z" clip-path="url(#clipPath2)" stroke="none"/>
      <path fill="none" d="M257.4713 -791.2385 L257.4713 -741.2188" clip-path="url(#clipPath2)"/>
      <path d="M257.4713 -733.2188 L262.4713 -745.2188 L257.4713 -742.2188 L252.4713 -745.2188 Z" clip-path="url(#clipPath2)" stroke="none"/>
      <path fill="none" d="M568.0559 -586.998 L568.0559 -594.4834 L568.8059 -600.8474 L571.0559 -604.9688 L571.0559 -604.9688 L575.8059 -607.2188 L584.0559 -607.9688 L586.8059 -607.9688 L595.0559 -607.2188 L599.8059 -604.9688 L599.8059 -604.9688 L602.0559 -600.5 L602.8059 -593.0938 L602.8059 -593.0938 L602.0559 -585.6875 L599.8059 -581.2188 L599.8059 -581.2188 L596.6809 -578.9688 L593.3059 -578.2188 L589.8059 -578.2188" clip-path="url(#clipPath2)"/>
      <path d="M581.8059 -578.2188 L593.8059 -573.2188 L590.8059 -578.2188 L593.8059 -583.2188 Z" clip-path="url(#clipPath2)" stroke="none"/>
      <path fill="none" d="M420.5559 -586.998 L420.5559 -594.4834 L419.8059 -600.8474 L417.5559 -604.9688 L417.5559 -604.9688 L412.8059 -607.2188 L404.5559 -607.9688 L401.8059 -607.9688 L393.5559 -607.2188 L388.8059 -604.9688 L388.8059 -604.9688 L386.5559 -600.5 L385.8059 -593.0938 L385.8059 -593.0938 L386.5559 -585.6875 L388.8059 -581.2188 L388.8059 -581.2188 L391.9272 -578.9688 L395.2913 -578.2188 L398.7766 -578.2188" clip-path="url(#clipPath2)"/>
      <path d="M406.7766 -578.2188 L394.7766 -583.2188 L397.7766 -578.2188 L394.7766 -573.2188 Z" clip-path="url(#clipPath2)" stroke="none"/>
      <path fill="none" d="M420.5559 -733.2188 L420.5559 -740.7188 L419.8059 -747.0938 L417.5559 -751.2188 L417.5559 -751.2188 L412.8059 -753.4688 L404.5559 -754.2188 L401.8059 -754.2188 L393.5559 -753.4688 L388.8059 -751.2188 L388.8059 -751.2188 L386.5559 -746.75 L385.8059 -739.3438 L385.8059 -739.3438 L386.5559 -731.9375 L388.8059 -727.4688 L388.8059 -727.4688 L391.9309 -725.2188 L395.3059 -724.4688 L398.8059 -724.4688" clip-path="url(#clipPath2)"/>
      <path d="M406.8059 -724.4688 L394.8059 -729.4688 L397.8059 -724.4688 L394.8059 -719.4688 Z" clip-path="url(#clipPath2)" stroke="none"/>
      <path fill="none" d="M434.3059 -594.9688 L434.3059 -690.2188" clip-path="url(#clipPath2)"/>
      <path d="M434.3059 -586.9688 L439.3059 -598.9688 L434.3059 -595.9688 L429.3059 -598.9688 Z" clip-path="url(#clipPath2)" stroke="none"/>
      <path d="M434.3059 -698.2188 L429.3059 -686.2188 L434.3059 -689.2188 L439.3059 -686.2188 Z" clip-path="url(#clipPath2)" stroke="none"/>
      <path fill="none" d="M437.4528 -698.3337 L443.8831 -662.8091 L446.2111 -653.1343 L449.6324 -643.79 L454.4483 -632.6496 L459.3867 -624.2165 L466.2661 -617.2753 L478.653 -607.499 L486.8033 -601.79 L495.5547 -597.0536 L522.7325 -584.2931" stroke-width="2" clip-path="url(#clipPath2)" stroke="maroon"/>
      <path fill="maroon" d="M530.8793 -580.468 C529.823 -578.2184 527.143 -577.2509 524.8934 -578.3072 C522.6437 -579.3635 521.6763 -582.0435 522.7325 -584.2931 C523.7888 -586.5427 526.4688 -587.5102 528.7184 -586.4539 C530.9681 -585.3976 531.9355 -582.7177 530.8793 -580.468 Z" stroke-width="2" clip-path="url(#clipPath2)" stroke="none"/>
      <path fill="none" d="M447.229 -586.9688 L480.2337 -631.6627" clip-path="url(#clipPath2)" stroke="maroon"/>
      <path fill="maroon" d="M484.986 -638.0981 C486.7631 -636.7858 487.1399 -634.2813 485.8276 -632.5042 C484.5153 -630.7271 482.0108 -630.3503 480.2337 -631.6627 C478.4566 -632.975 478.0798 -635.4794 479.3921 -637.2565 C480.7044 -639.0336 483.2089 -639.4104 484.986 -638.0981 Z" clip-path="url(#clipPath2)" stroke="none"/>
      <path fill="none" d="M480.5559 -668.2188 L480.5559 -675.7188 L479.8059 -682.0938 L477.5559 -686.2188 L477.5559 -686.2188 L472.8059 -688.4688 L464.5559 -689.2188 L461.8059 -689.2188 L453.5559 -688.4688 L448.8059 -686.2188 L448.8059 -686.2188 L446.5559 -681.75 L445.8059 -674.3438 L445.8059 -674.3438 L446.5559 -666.9375 L448.8059 -662.4688 L448.8059 -662.4688 L451.9309 -660.2188 L455.3059 -659.4688 L458.8059 -659.4688" clip-path="url(#clipPath2)"/>
      <path d="M466.8059 -659.4688 L454.8059 -664.4688 L457.8059 -659.4688 L454.8059 -654.4688 Z" clip-path="url(#clipPath2)" stroke="none"/>
      <path fill="none" d="M482.6099 -634.8804 L452.5753 -594.2087" stroke-width="2" clip-path="url(#clipPath2)"/>
      <path d="M447.229 -586.9688 L459.7735 -594.4871 L453.2436 -595.1136 L450.7236 -601.1701 Z" stroke-width="2" clip-path="url(#clipPath2)" stroke="none"/>
      <path fill="none" d="M506.0019 -634.8804 L536.6305 -593.4042" clip-path="url(#clipPath2)"/>
      <path d="M541.3828 -586.9688 L538.2765 -599.5922 L536.0364 -594.2087 L530.2322 -593.6518 Z" clip-path="url(#clipPath2)" stroke="none"/>
      <path fill="none" d="M508.2345 -665.808 L534.2728 -694.0162" stroke-width="2" clip-path="url(#clipPath2)"/>
      <path d="M540.3773 -700.6295 L527.0873 -694.5249 L533.5098 -693.1896 L535.3538 -686.8943 Z" stroke-width="2" clip-path="url(#clipPath2)" stroke="none"/>
      <path fill="none" d="M568.0559 -733.2188 L568.0559 -740.7188 L568.8059 -747.0938 L571.0559 -751.2188 L571.0559 -751.2188 L575.8059 -753.4688 L584.0559 -754.2188 L586.8059 -754.2188 L595.0559 -753.4688 L599.8059 -751.2188 L599.8059 -751.2188 L602.0559 -746.75 L602.8059 -739.3438 L602.8059 -739.3438 L602.0559 -731.9375 L599.8059 -727.4688 L599.8059 -727.4688 L596.6809 -725.2188 L593.3059 -724.4688 L589.8059 -724.4688" clip-path="url(#clipPath2)"/>
      <path d="M581.8059 -724.4688 L593.8059 -719.4688 L590.8059 -724.4688 L593.8059 -729.4688 Z" clip-path="url(#clipPath2)" stroke="none"/>
      <path fill="none" d="M554.3059 -594.9688 L554.3059 -690.2188" clip-path="url(#clipPath2)"/>
      <path d="M554.3059 -586.9688 L559.3059 -598.9688 L554.3059 -595.9688 L549.3059 -598.9688 Z" clip-path="url(#clipPath2)" stroke="none"/>
      <path d="M554.3059 -698.2188 L549.3059 -686.2188 L554.3059 -689.2188 L559.3059 -686.2188 Z" clip-path="url(#clipPath2)" stroke="none"/>
      <path fill="none" d="M551.0834 -698.3393 L548.7803 -685.9178 L544.861 -666.3076 L540.5938 -646.4033 L537.4164 -637.1534 L532.0766 -628.9593 L520.5151 -615.1559 L513.4491 -608.3171 L505.0931 -603.1329 L483.2999 -592.5839 L470.0895 -586.2527 L465.88 -584.2783" stroke-width="2" clip-path="url(#clipPath2)" stroke="maroon"/>
      <path fill="maroon" d="M457.7318 -580.4564 C456.6764 -582.7064 457.6449 -585.386 459.895 -586.4414 C462.145 -587.4968 464.8246 -586.5283 465.88 -584.2783 C466.9354 -582.0282 465.9669 -579.3486 463.7169 -578.2932 C461.4668 -577.2379 458.7872 -578.2063 457.7318 -580.4564 Z" stroke-width="2" clip-path="url(#clipPath2)" stroke="none"/>
      <path fill="none" d="M434.3059 -791.2385 L434.3059 -741.2188" clip-path="url(#clipPath2)"/>
      <path d="M434.3059 -733.2188 L439.3059 -745.2188 L434.3059 -742.2188 L429.3059 -745.2188 Z" clip-path="url(#clipPath2)" stroke="none"/>
      <path fill="none" d="M494.3059 -791.223 L494.3059 -676.2188" clip-path="url(#clipPath2)"/>
      <path d="M494.3059 -668.2188 L499.3059 -680.2188 L494.3059 -677.2188 L489.3059 -680.2188 Z" clip-path="url(#clipPath2)" stroke="none"/>
      <path fill="none" d="M554.3059 -791.2385 L554.3059 -741.2188" clip-path="url(#clipPath2)"/>
      <path d="M554.3059 -733.2188 L559.3059 -745.2188 L554.3059 -742.2188 L549.3059 -745.2188 Z" clip-path="url(#clipPath2)" stroke="none"/>
      <path fill="none" d="M864.8904 -733.2188 L864.8904 -740.7188 L865.6404 -747.0938 L867.8904 -751.2188 L867.8904 -751.2188 L872.6404 -753.4688 L880.8904 -754.2188 L883.6404 -754.2188 L891.8904 -753.4688 L896.6404 -751.2188 L896.6404 -751.2188 L898.8904 -746.75 L899.6404 -739.3438 L899.6404 -739.3438 L898.8904 -731.9375 L896.6404 -727.4688 L896.6404 -727.4688 L893.5154 -725.2188 L890.1404 -724.4688 L886.6404 -724.4688" clip-path="url(#clipPath2)"/>
      <path d="M878.6404 -724.4688 L890.6404 -719.4688 L887.6404 -724.4688 L890.6404 -729.4688 Z" clip-path="url(#clipPath2)" stroke="none"/>
      <path fill="none" d="M851.1404 -594.9688 L851.1404 -690.2188" clip-path="url(#clipPath2)"/>
      <path d="M851.1404 -586.9688 L856.1404 -598.9688 L851.1404 -595.9688 L846.1404 -598.9688 Z" clip-path="url(#clipPath2)" stroke="none"/>
      <path d="M851.1404 -698.2188 L846.1404 -686.2188 L851.1404 -689.2188 L856.1404 -686.2188 Z" clip-path="url(#clipPath2)" stroke="none"/>
      <path fill="none" d="M847.7327 -698.3536 L841.4808 -666.4963 L836.2914 -647.2311 L832.8873 -637.3721 L828.7262 -628.4622 L822.7702 -620.6375 L813.5598 -610.8511 L806.141 -604.3611 L797.5914 -599.4557 L762.7422 -583.7295" stroke-width="2" clip-path="url(#clipPath2)" stroke="maroon"/>
      <path fill="maroon" d="M754.5388 -580.0276 C753.5165 -582.2929 754.5242 -584.958 756.7896 -585.9802 C759.0549 -587.0025 761.72 -585.9948 762.7422 -583.7295 C763.7645 -581.4642 762.7568 -578.7991 760.4915 -577.7769 C758.2261 -576.7546 755.561 -577.7623 754.5388 -580.0276 Z" stroke-width="2" clip-path="url(#clipPath2)" stroke="none"/>
      <path fill="none" d="M717.3904 -586.998 L717.3904 -594.4834 L716.6404 -600.8474 L714.3904 -604.9688 L714.3904 -604.9688 L709.6404 -607.2188 L701.3904 -607.9688 L698.6404 -607.9688 L690.3904 -607.2188 L685.6404 -604.9688 L685.6404 -604.9688 L683.3904 -600.5 L682.6404 -593.0938 L682.6404 -593.0938 L683.3904 -585.6875 L685.6404 -581.2188 L685.6404 -581.2188 L688.7618 -578.9688 L692.1258 -578.2188 L695.6111 -578.2188" clip-path="url(#clipPath2)"/>
      <path d="M703.6111 -578.2188 L691.6111 -583.2188 L694.6111 -578.2188 L691.6111 -573.2188 Z" clip-path="url(#clipPath2)" stroke="none"/>
      <path fill="none" d="M819.1404 -569.4688 L763.1404 -569.4688" stroke-width="2" clip-path="url(#clipPath2)" stroke="maroon"/>
      <path fill="maroon" d="M828.1404 -569.4688 C828.1404 -566.9835 826.1257 -564.9688 823.6404 -564.9688 C821.1552 -564.9688 819.1404 -566.9835 819.1404 -569.4688 C819.1404 -571.954 821.1552 -573.9688 823.6404 -573.9688 C826.1257 -573.9688 828.1404 -571.954 828.1404 -569.4688 Z" stroke-width="2" clip-path="url(#clipPath2)" stroke="none"/>
      <path fill="maroon" d="M754.1404 -569.4688 C754.1404 -571.954 756.1552 -573.9688 758.6404 -573.9688 C761.1257 -573.9688 763.1404 -571.954 763.1404 -569.4688 C763.1404 -566.9835 761.1257 -564.9688 758.6404 -564.9688 C756.1552 -564.9688 754.1404 -566.9835 754.1404 -569.4688 Z" stroke-width="2" clip-path="url(#clipPath2)" stroke="none"/>
      <path fill="none" d="M717.3904 -733.2188 L717.3904 -740.7188 L716.6404 -747.0938 L714.3904 -751.2188 L714.3904 -751.2188 L709.6404 -753.4688 L701.3904 -754.2188 L698.6404 -754.2188 L690.3904 -753.4688 L685.6404 -751.2188 L685.6404 -751.2188 L683.3904 -746.75 L682.6404 -739.3438 L682.6404 -739.3438 L683.3904 -731.9375 L685.6404 -727.4688 L685.6404 -727.4688 L688.7654 -725.2188 L692.1404 -724.4688 L695.6404 -724.4688" clip-path="url(#clipPath2)"/>
      <path d="M703.6404 -724.4688 L691.6404 -729.4688 L694.6404 -724.4688 L691.6404 -719.4688 Z" clip-path="url(#clipPath2)" stroke="none"/>
      <path fill="none" d="M731.1404 -594.9688 L731.1404 -690.2188" clip-path="url(#clipPath2)"/>
      <path d="M731.1404 -586.9688 L736.1404 -598.9688 L731.1404 -595.9688 L726.1404 -598.9688 Z" clip-path="url(#clipPath2)" stroke="none"/>
      <path d="M731.1404 -698.2188 L726.1404 -686.2188 L731.1404 -689.2188 L736.1404 -686.2188 Z" clip-path="url(#clipPath2)" stroke="none"/>
      <path fill="none" d="M823.6404 -715.7188 L763.1404 -715.7188" stroke-width="2" clip-path="url(#clipPath2)" stroke="maroon"/>
      <path fill="maroon" d="M754.1404 -715.7188 C754.1404 -718.204 756.1552 -720.2188 758.6404 -720.2188 C761.1257 -720.2188 763.1404 -718.204 763.1404 -715.7188 C763.1404 -713.2335 761.1257 -711.2188 758.6404 -711.2188 C756.1552 -711.2188 754.1404 -713.2335 754.1404 -715.7188 Z" stroke-width="2" clip-path="url(#clipPath2)" stroke="none"/>
      <path fill="none" d="M734.5995 -698.3577 L735.8691 -691.9852 L739.2882 -675.8465 L741.6135 -665.281 L746.8704 -646.0098 L750.2168 -635.7739 L754.4087 -626.9763 L760.7697 -619.5933 L771.8694 -609.6411 L779.7192 -603.5777 L788.3777 -598.7388 L816.3901 -585.6749" clip-path="url(#clipPath2)"/>
      <path d="M823.6404 -582.2936 L814.8783 -591.897 L815.4838 -586.0976 L810.6517 -582.8341 Z" clip-path="url(#clipPath2)" stroke="none"/>
      <path fill="none" d="M744.0635 -586.9688 L777.0683 -631.6627" clip-path="url(#clipPath2)" stroke="maroon"/>
      <path fill="maroon" d="M781.8206 -638.0982 C783.5977 -636.7859 783.9745 -634.2814 782.6622 -632.5043 C781.3499 -630.7272 778.8455 -630.3503 777.0683 -631.6627 C775.2912 -632.975 774.9144 -635.4794 776.2267 -637.2566 C777.539 -639.0337 780.0435 -639.4105 781.8206 -638.0982 Z" clip-path="url(#clipPath2)" stroke="none"/>
      <path fill="none" d="M777.3904 -668.2188 L777.3904 -675.7188 L776.6404 -682.0938 L774.3904 -686.2188 L774.3904 -686.2188 L769.6404 -688.4688 L761.3904 -689.2188 L758.6404 -689.2188 L750.3904 -688.4688 L745.6404 -686.2188 L745.6404 -686.2188 L743.3904 -681.75 L742.6404 -674.3438 L742.6404 -674.3438 L743.3904 -666.9375 L745.6404 -662.4688 L745.6404 -662.4688 L748.7654 -660.2188 L752.1404 -659.4688 L755.6404 -659.4688" clip-path="url(#clipPath2)"/>
      <path d="M763.6404 -659.4688 L751.6404 -664.4688 L754.6404 -659.4688 L751.6404 -654.4688 Z" clip-path="url(#clipPath2)" stroke="none"/>
      <path fill="none" d="M834.1597 -697.3229 L808.1213 -669.1146" stroke-width="2" clip-path="url(#clipPath2)" stroke="maroon"/>
      <path fill="maroon" d="M840.2642 -703.936 C842.0904 -702.2504 842.2042 -699.4034 840.5185 -697.5772 C838.8328 -695.751 835.9858 -695.6371 834.1597 -697.3229 C832.3334 -699.0085 832.2196 -701.8555 833.9053 -703.6817 C835.591 -705.5079 838.438 -705.6218 840.2642 -703.936 Z" stroke-width="2" clip-path="url(#clipPath2)" stroke="none"/>
      <path fill="maroon" d="M802.0168 -662.5015 C800.1906 -664.1871 800.0767 -667.0341 801.7625 -668.8603 C803.4481 -670.6865 806.2951 -670.8004 808.1213 -669.1146 C809.9475 -667.429 810.0613 -664.582 808.3756 -662.7558 C806.6899 -660.9296 803.843 -660.8157 802.0168 -662.5015 Z" stroke-width="2" clip-path="url(#clipPath2)" stroke="none"/>
      <path fill="none" d="M779.4445 -634.8804 L748.8159 -593.4042" clip-path="url(#clipPath2)"/>
      <path d="M744.0635 -586.9688 L755.2142 -593.6518 L749.4099 -594.2087 L747.1699 -599.5922 Z" clip-path="url(#clipPath2)" stroke="none"/>
      <path fill="none" d="M731.1404 -791.2385 L731.1404 -741.2188" clip-path="url(#clipPath2)"/>
      <path d="M731.1404 -733.2188 L736.1404 -745.2188 L731.1404 -742.2188 L726.1404 -745.2188 Z" clip-path="url(#clipPath2)" stroke="none"/>
      <path fill="none" d="M851.1404 -791.2385 L851.1404 -741.2188" clip-path="url(#clipPath2)"/>
      <path d="M851.1404 -733.2188 L856.1404 -745.2188 L851.1404 -742.2188 L846.1404 -745.2188 Z" clip-path="url(#clipPath2)" stroke="none"/>
      <path fill="none" d="M791.1404 -791.223 L791.1404 -676.2188" clip-path="url(#clipPath2)"/>
      <path d="M791.1404 -668.2188 L796.1404 -680.2188 L791.1404 -677.2188 L786.1404 -680.2188 Z" clip-path="url(#clipPath2)" stroke="none"/>
    </g>
  </g>
</svg>
